PathFileType	4	(X/Y/Z)	C:/Users/opensim2020/Desktop/walking_exp_matlab/subject02_walking06_straight_02.trc	
DataRate	CameraRate	NumFrames	NumMarkers	Units	OrigDataRate	OrigDataStartFrame	OrigNumFrames	
100.00	100.00	4	41	mm	100.00	1454	183	
Frame#	Time	LFHD			RFHD			LBHD			RBHD			C7			T10			CLAV			STRN			RBAK			LSHO			LUPA			LELB			LFRM			LWRA			LWRB			LFIN			RSHO			RUPA			RELB			RFRM			RWRA			RWRB			RFIN			LASI			RASI			LPSI			RPSI			LTHI			LKNE			LTIB			LANK			LHEE			LTOE			RTHI			RKNE			RTIB			RANK			RHEE			RTOE			*39			*40			
		X1	Y1	Z1	X2	Y2	Z2	X3	Y3	Z3	X4	Y4	Z4	X5	Y5	Z5	X6	Y6	Z6	X7	Y7	Z7	X8	Y8	Z8	X9	Y9	Z9	X10	Y10	Z10	X11	Y11	Z11	X12	Y12	Z12	X13	Y13	Z13	X14	Y14	Z14	X15	Y15	Z15	X16	Y16	Z16	X17	Y17	Z17	X18	Y18	Z18	X19	Y19	Z19	X20	Y20	Z20	X21	Y21	Z21	X22	Y22	Z22	X23	Y23	Z23	X24	Y24	Z24	X25	Y25	Z25	X26	Y26	Z26	X27	Y27	Z27	X28	Y28	Z28	X29	Y29	Z29	X30	Y30	Z30	X31	Y31	Z31	X32	Y32	Z32	X33	Y33	Z33	X34	Y34	Z34	X35	Y35	Z35	X36	Y36	Z36	X37	Y37	Z37	X38	Y38	Z38	X39	Y39	Z39	X40	Y40	Z40	X41	Y41	Z41	

23	0.220	-962.21869	536.79749	1729.12793	-1105.96106	535.87823	1711.69604	-953.71356	660.40515	1643.62427	-1095.49207	672.00653	1623.57263	-1028.23535	708.73169	1509.47021	-1039.25940	768.72925	1236.83301	-1016.99261	570.23450	1436.65881	-1038.82166	523.46545	1263.86926	-1100.56250	770.16730	1342.88818	-847.91400	642.92346	1472.94861	-772.60724	708.15015	1283.84314	-762.90674	751.04840	1151.34900	-743.05560	787.69965	1026.41174	-758.97058	774.33582	886.42242	-733.80444	820.23499	908.10907	-725.80206	827.21619	841.70459	-1211.42407	626.62115	1483.72180	-1319.71069	622.57861	1306.82605	-1363.93054	565.16394	1174.95496	-1381.85181	485.32343	1083.24915	-1359.80627	388.35645	992.22681	-1398.22815	423.48355	969.57959	-1399.80640	359.84494	937.29547	-928.94958	525.71655	972.55719	-1186.89038	561.99011	953.50269	-982.03546	745.35852	1016.50812	-1093.91614	764.73322	1018.35449	-863.73486	507.55334	675.10883	-899.44757	474.09232	478.63675	-896.40167	469.90320	284.02783	-929.47729	396.21494	72.22480	-980.49200	423.25018	34.82246	-928.75812	242.76472	79.27971	-1233.13403	721.54218	667.22229	-1194.52710	782.80231	465.31851	-1193.59167	892.22711	310.41388	-1157.26550	978.59131	135.88942	-1099.09583	1024.98853	94.21655	-1179.21960	849.75085	41.36295	-1051.67188	643.93805	1786.59009	-3356.78296	2845.95972	1033.90601 
24	0.230	-960.78027	526.05701	1727.93787	-1104.22192	525.56000	1710.76245	-951.49286	650.47205	1642.71021	-1093.74841	661.59094	1622.49304	-1026.37830	698.25452	1508.05249	-1037.41235	757.17725	1235.16724	-1015.32104	559.39844	1435.88135	-1037.43762	511.89661	1263.41846	-1098.79700	759.15845	1341.33032	-846.17407	631.94965	1471.62122	-771.35321	696.13098	1281.99597	-761.92920	738.89252	1149.37219	-742.96710	774.90289	1023.95306	-759.93579	761.10236	884.03149	-734.17462	806.86127	905.41821	-727.07947	814.00067	838.90771	-1209.66248	616.49567	1482.79639	-1318.14600	612.99908	1305.99988	-1362.39795	556.01361	1173.90002	-1380.56018	476.06134	1082.24231	-1358.06470	379.08435	991.23016	-1396.51074	414.08176	968.55634	-1398.08105	350.43729	936.38293	-926.64795	512.64545	972.20374	-1185.23035	549.16388	952.56244	-980.18372	732.61566	1015.01941	-1091.96191	751.95483	1016.81763	-862.60706	494.95425	674.31665	-897.59314	463.49005	476.93433	-895.23822	462.57547	282.10776	-930.46710	393.54156	70.39108	-983.00122	420.90283	36.11174	-924.30457	239.68654	69.63554	-1232.65857	710.73553	667.08112	-1195.22900	773.11987	465.57111	-1194.20605	885.71930	312.85004	-1158.42712	975.67651	140.07220	-1100.16577	1022.76752	99.91811	-1179.79211	849.35834	41.55781	-1049.63770	633.70087	1785.40369	-3360.29834	2845.22534	1033.88928 
25	0.240	-958.53418	515.81616	1727.54187	-1102.32654	515.15442	1710.24646	-949.56580	639.82190	1641.76965	-1091.83020	651.06134	1621.66345	-1024.33911	687.85870	1506.81311	-1035.18750	745.70483	1234.02136	-1013.57593	548.39697	1435.13123	-1035.98804	500.29562	1263.16406	-1096.46704	748.11023	1340.20325	-844.28851	621.00830	1470.44568	-769.94849	684.40588	1280.24426	-761.19885	726.36090	1147.22937	-742.92468	761.25970	1021.52612	-761.02979	747.19751	881.67303	-734.42914	792.79181	902.76239	-728.24890	799.73370	835.96594	-1207.90649	606.45105	1482.02173	-1315.87866	603.36615	1304.89392	-1360.88000	547.03314	1172.94861	-1378.67542	467.09845	1081.05029	-1356.38525	369.98672	990.21954	-1394.68872	405.07373	967.39966	-1396.22595	341.45032	935.16821	-924.70221	499.82388	971.78674	-1183.38269	536.06763	951.83875	-978.05151	719.61035	1013.70227	-1089.84888	739.15192	1015.32050	-860.89301	482.66852	673.70178	-895.97925	454.68234	475.72452	-896.00073	455.00281	280.48868	-930.16925	390.21777	71.14095	-983.77441	416.62961	38.44668	-919.46515	234.76897	61.07755	-1232.23767	699.46704	666.97577	-1195.84241	762.82880	465.92441	-1194.77393	878.69293	315.54181	-1159.84546	972.31244	144.73682	-1101.39038	1019.72729	106.00684	-1180.35083	849.18597	41.28124	-1048.19177	623.31079	1784.68079	-3360.17725	2845.05811	1033.94360 
26	0.250	-956.77478	505.30481	1727.43054	-1100.50159	504.69882	1710.17065	-947.81647	628.67340	1641.27576	-1089.71887	640.49994	1621.34204	-1022.12830	677.54950	1506.06555	-1033.01489	733.97412	1233.33838	-1011.84985	537.45758	1434.71436	-1034.44995	488.88483	1263.23718	-1093.76050	736.94214	1339.09583	-842.18774	609.99994	1469.45862	-768.45563	672.03870	1278.56018	-760.35303	713.28827	1145.06128	-742.62341	747.80157	1018.87909	-761.83728	732.76550	879.38025	-734.81628	778.33069	900.06964	-729.40295	784.94952	833.03644	-1206.17786	596.42743	1481.41687	-1313.98840	593.96008	1304.04663	-1359.03467	538.29919	1171.72595	-1376.91394	458.40317	1079.80872	-1354.76111	361.14294	989.08533	-1392.77148	396.44473	966.11938	-1394.41931	332.93652	933.75269	-922.76147	486.89719	971.64343	-1181.49023	522.62793	951.07733	-975.71478	706.52380	1012.87146	-1087.59094	726.31360	1013.87823	-858.79016	471.64136	674.03729	-893.74475	445.63669	475.50311	-896.68524	446.96811	280.03766	-927.97443	384.47318	70.10110	-981.93616	413.07187	40.16306	-917.73621	228.94254	55.06970	-1231.73193	687.56232	666.92578	-1196.54553	751.93396	466.50790	-1195.29297	871.02289	318.59506	-1161.24194	968.15796	149.96393	-1102.53589	1016.04962	112.99805	-1181.04700	848.60907	41.48154	-1046.02734	613.04553	1784.25073	-3360.22949	2845.13086	1033.94214 
